<svg id="visual" viewBox="0 0 1980 600" width="1980" height="600" xmlns="http://www.w3.org/2000/svg" xmlns:xlink="http://www.w3.org/1999/xlink" version="1.1"><path d="M0 226L152 279L305 258L457 200L609 270L762 253L914 248L1066 268L1218 224L1371 220L1523 261L1675 248L1828 200L1980 241L1980 601L1828 601L1675 601L1523 601L1371 601L1218 601L1066 601L914 601L762 601L609 601L457 601L305 601L152 601L0 601Z" fill="#f5730a"></path><path d="M0 320L152 294L305 291L457 265L609 302L762 310L914 293L1066 318L1218 271L1371 269L1523 235L1675 279L1828 287L1980 245L1980 601L1828 601L1675 601L1523 601L1371 601L1218 601L1066 601L914 601L762 601L609 601L457 601L305 601L152 601L0 601Z" fill="#f36d0e"></path><path d="M0 271L152 266L305 300L457 326L609 325L762 267L914 328L1066 307L1218 309L1371 293L1523 263L1675 308L1828 282L1980 284L1980 601L1828 601L1675 601L1523 601L1371 601L1218 601L1066 601L914 601L762 601L609 601L457 601L305 601L152 601L0 601Z" fill="#f16711"></path><path d="M0 297L152 304L305 344L457 367L609 360L762 318L914 372L1066 370L1218 366L1371 312L1523 368L1675 345L1828 328L1980 357L1980 601L1828 601L1675 601L1523 601L1371 601L1218 601L1066 601L914 601L762 601L609 601L457 601L305 601L152 601L0 601Z" fill="#ef6014"></path><path d="M0 347L152 333L305 351L457 396L609 329L762 358L914 383L1066 348L1218 346L1371 398L1523 350L1675 368L1828 357L1980 346L1980 601L1828 601L1675 601L1523 601L1371 601L1218 601L1066 601L914 601L762 601L609 601L457 601L305 601L152 601L0 601Z" fill="#ed5a17"></path><path d="M0 410L152 408L305 390L457 418L609 415L762 382L914 385L1066 427L1218 424L1371 409L1523 391L1675 423L1828 402L1980 376L1980 601L1828 601L1675 601L1523 601L1371 601L1218 601L1066 601L914 601L762 601L609 601L457 601L305 601L152 601L0 601Z" fill="#eb531a"></path><path d="M0 389L152 390L305 454L457 444L609 393L762 417L914 400L1066 454L1218 394L1371 422L1523 447L1675 409L1828 437L1980 393L1980 601L1828 601L1675 601L1523 601L1371 601L1218 601L1066 601L914 601L762 601L609 601L457 601L305 601L152 601L0 601Z" fill="#e94d1c"></path><path d="M0 460L152 446L305 421L457 456L609 421L762 476L914 468L1066 433L1218 474L1371 476L1523 421L1675 441L1828 438L1980 424L1980 601L1828 601L1675 601L1523 601L1371 601L1218 601L1066 601L914 601L762 601L609 601L457 601L305 601L152 601L0 601Z" fill="#e7461e"></path><path d="M0 505L152 491L305 471L457 463L609 502L762 505L914 492L1066 492L1218 490L1371 508L1523 461L1675 493L1828 495L1980 481L1980 601L1828 601L1675 601L1523 601L1371 601L1218 601L1066 601L914 601L762 601L609 601L457 601L305 601L152 601L0 601Z" fill="#e43f20"></path><path d="M0 530L152 523L305 484L457 490L609 525L762 490L914 508L1066 491L1218 518L1371 484L1523 533L1675 517L1828 524L1980 531L1980 601L1828 601L1675 601L1523 601L1371 601L1218 601L1066 601L914 601L762 601L609 601L457 601L305 601L152 601L0 601Z" fill="#e23722"></path><path d="M0 520L152 527L305 526L457 552L609 515L762 523L914 556L1066 552L1218 525L1371 514L1523 552L1675 524L1828 522L1980 548L1980 601L1828 601L1675 601L1523 601L1371 601L1218 601L1066 601L914 601L762 601L609 601L457 601L305 601L152 601L0 601Z" fill="#df2f24"></path><path d="M0 557L152 545L305 561L457 575L609 560L762 587L914 569L1066 585L1218 547L1371 554L1523 548L1675 546L1828 572L1980 572L1980 601L1828 601L1675 601L1523 601L1371 601L1218 601L1066 601L914 601L762 601L609 601L457 601L305 601L152 601L0 601Z" fill="#dc2626"></path></svg>